<svg xmlns="http://www.w3.org/2000/svg" viewBox="0 0 512 512" fill="none">
  <defs>
    <linearGradient id="grad" x1="0%" y1="0%" x2="100%" y2="100%">
      <stop offset="0%" stop-color="#0ea5e9"/>
      <stop offset="100%" stop-color="#d946ef"/>
    </linearGradient>
  </defs>
  <circle cx="256" cy="256" r="240" fill="url(#grad)"/>
  <path d="M256 160c-53 0-96 43-96 96s43 96 96 96 96-43 96-96-43-96-96-96zm0 160c-35.3 0-64-28.7-64-64s28.7-64 64-64 64 28.7 64 64-28.7 64-64 64z" fill="white" opacity="0.9"/>
  <path d="M256 192c-35.3 0-64 28.7-64 64" stroke="white" stroke-width="24" stroke-linecap="round" fill="none"/>
  <path d="M176 128c-24 16-42 40-50 68" stroke="white" stroke-width="24" stroke-linecap="round" fill="none" opacity="0.7"/>
  <path d="M336 128c24 16 42 40 50 68" stroke="white" stroke-width="24" stroke-linecap="round" fill="none" opacity="0.7"/>
  <path d="M126 90c-32 24-56 58-68 96" stroke="white" stroke-width="24" stroke-linecap="round" fill="none" opacity="0.5"/>
  <path d="M386 90c32 24 56 58 68 96" stroke="white" stroke-width="24" stroke-linecap="round" fill="none" opacity="0.5"/>
</svg>